# xmcd
#
# Track frame offsets:
#	150
#	14153
#	28481
#	42597
#	58987
#	74762
#	98333
#	118424
#	131968
#	147387
#	166328
#	183350
#
# Disc length: 2649 seconds
# Revision: 0
# Processed by: cddbd v1.5.2PL0 Copyright (c) Steve Scherf et al.
# Submitted via: dBpowerAMP V12.0
#
DISCID=c50a570c
DTITLE=Magnolia - Fall Down Seven
DYEAR=2007
DGENRE=Country
TTITLE0=God's Country
TTITLE1=Cowgirls
TTITLE2=Home In Dixie
TTITLE3=The Mississippi
TTITLE4=Wake Up The Neighbors
TTITLE5=More Than Johnny Loved June
TTITLE6=1984 (Grandma's House)
TTITLE7=Shimmer In The Moonlight
TTITLE8=I Like Who I Am With You
TTITLE9=My Way and The Highway
TTITLE10=The Falldown Kid
TTITLE11=Always I'll Be
EXTD=
EXTT0=
EXTT1=
EXTT2=
EXTT3=
EXTT4=
EXTT5=
EXTT6=
EXTT7=
EXTT8=
EXTT9=
EXTT10=
EXTT11=
PLAYORDER=
